# xmcd CD database file
#
# Track frame offsets:
#	180
#	13092
#	39089
#	56962
#	76928
#	93532
#	112750
#	131940
#	153917
#	177165
#	192258
#
# Disc length: 2771 seconds
#
# Revision: 0
# Processed by: cddbd v1.5PL3 Copyright (c) Steve Scherf et al.
# Submitted via: cdripper 1.0.7
#
DISCID=860ad10b
DTITLE=Kim Lembo - Mama Lion
DYEAR=1996
DGENRE=Blues
TTITLE0=In the Dark
TTITLE1=Your Good Thing (Is About to End)
TTITLE2=Trying to Get Over You 
TTITLE3=A Fool No More
TTITLE4=Love Got Me
TTITLE5=When My Love Comes Down
TTITLE6=Town of Love
TTITLE7=Come on Home
TTITLE8=Broke My Baby's Heart
TTITLE9=I've Done Everything I Can
TTITLE10=Mama Lion
EXTD=YEAR: 1996
EXTT0=
EXTT1=
EXTT2=
EXTT3=
EXTT4=
EXTT5=
EXTT6=
EXTT7=
EXTT8=
EXTT9=
EXTT10=
PLAYORDER=
